<svg xmlns="http://www.w3.org/2000/svg" viewBox="0 0 262.63 62.56"><defs><style>.cls-1{fill:#008835;}.cls-1,.cls-2,.cls-3{fill-rule:evenodd;}.cls-2{fill:#00509e;}.cls-3{fill:#e30016;}</style></defs><g id="Warstwa_2" data-name="Warstwa 2"><g id="Warstwa_1-2" data-name="Warstwa 1"><path class="cls-1" d="M30.77,16.05C31.88,11.94,34.93,3.61,37,0c5.7,6.49,31.63,50.54,31.41,57.75-.94-.7-1.83-1.39-2.68-2.06-9.78-8-17.39-14.75-25.82-26.4C37,25.18,33.71,21,30.77,16.05Z"/><path class="cls-2" d="M259.31,46.06l-4.14,5.81L251,46.06h-3.32l6.11,8.57v7.7h2.72v-7.7l6.11-8.57Zm-16.06,0h-2.7V57.63l-8.1-11.57H229.7V62.33h2.72V50.75l8.09,11.58h2.74ZM218.66,59.61V46.06H216V62.33h8.74V59.61ZM204.1,52.45l2,5.65h-3.95Zm3.58,9.88h2.93L204.1,45.59l-6.49,16.74h2.93l.7-1.88H207Zm-15.9-16.27h-2.69V57.63L181,46.06h-2.75V62.33H181V50.75L189,62.33h2.74ZM163.59,59.91c-7,0-7-11.41,0-11.41S170.64,59.91,163.59,59.91Zm0-14.06c-10.71,0-10.73,16.69,0,16.69S174.26,45.85,163.59,45.85ZM146.26,62.33H149V46.06h-2.72Zm-14.15-9.26v2.4h4.32V58a5.36,5.36,0,0,1-4.07,1.84c-3,0-5.41-1.67-5.41-5.65a5.27,5.27,0,0,1,5.41-5.65,5.47,5.47,0,0,1,3.84,1.58l1.91-1.9a8,8,0,0,0-5.75-2.4,8.13,8.13,0,0,0-8.13,8.37c0,5.33,3.41,8.37,7.79,8.37a6.17,6.17,0,0,0,4.62-1.7l.14,1.49h2.37V53.07ZM118.4,48.78V46.06H107.54V62.33H118.4V59.61h-8.14V55.54H117v-2.7h-6.77V48.78Zm-25.59,0h2.7s2.72,0,2.72,2-2.72,2-2.72,2h-2.7Zm5.33,13.55h3l-3.32-7.21A4.35,4.35,0,0,0,101,50.8c0-4.74-5.44-4.74-5.44-4.74H90.09V62.33h2.72V55.54H95ZM210.41,23.27h-9.52v2.49h3.41V39.54H207V25.76h3.41ZM189,39.77c3.47,0,6.12-2,6.12-5.44V23.27h-2.72V34.33c0,1.81-1.7,2.73-3.4,2.73s-3.23-.85-3.36-2.73V23.27h-2.72V34.33C182.88,37.68,185.62,39.77,189,39.77Zm-11.84-16.5h-9.53v2.49H171V39.54h2.7V25.76h3.42Zm-16.41,0-4.14,5.81-4.16-5.81h-3.32l6.11,8.58v7.69h2.72V31.85L164,23.27Zm-15.08,0H136.1v2.49h3.42V39.54h2.69V25.76h3.42Zm-19.31,16.5c2.63,0,5.07-1.67,5.07-4.79a4.63,4.63,0,0,0-2.65-4.37,6.22,6.22,0,0,0-2.42-.53,2.17,2.17,0,1,1,0-4.32c1.23,0,2.28.6,2.32,1.95h2.7a4.75,4.75,0,0,0-5-4.67,4.93,4.93,0,0,0-5.09,5,4.35,4.35,0,0,0,2.65,4.16,6.19,6.19,0,0,0,2.44.54A2.41,2.41,0,0,1,128.69,35a2.19,2.19,0,0,1-2.37,2.08A2.16,2.16,0,0,1,124,35h-2.72C121.28,38.07,123.51,39.7,126.32,39.77Zm-11.71-16.5h-2.7V34.84L103.8,23.27h-2.74V39.54h2.72V28l8.09,11.58h2.74ZM90.19,39.54h2.72V23.27H90.19ZM219.39,6.88l2,5.64h-4ZM223,16.75h2.93L219.39,0,212.9,16.75h2.93l.7-1.88h5.72ZM204.84.46V12a2,2,0,0,1-2,2h-2.05v2.71h2.05s4.76,0,4.76-4.74V.46ZM190.23,14.27a5.3,5.3,0,0,1-5.4-5.65c0-3.28,2-5.65,5.4-5.65a5.42,5.42,0,0,1,3.83,1.58L196,2.64A8,8,0,0,0,190.23.25c-4.77,0-8.16,3.47-8.16,8.37a8.15,8.15,0,0,0,13.89,6l-1.9-1.92A5.46,5.46,0,0,1,190.23,14.27ZM170.77,6.88l2,5.64H168.8Zm3.59,9.87h2.92L170.77,0l-6.48,16.73h2.93l.7-1.88h5.71ZM150.42,14.1v-11s6.76-1,6.76,5.49S150.42,14.1,150.42,14.1ZM147.7.48V16.75h2.72c4,0,9.51-1.18,9.51-8.13,0-7.23-5.56-8.14-9.51-8.14ZM140,.48h-2.69V12.06L129.23.48h-2.75V16.75h2.72V5.18l8.09,11.57H140ZM112.73,17c3.46,0,6.11-2,6.11-5.43V.48h-2.72V11.55c0,1.81-1.69,2.72-3.39,2.72s-3.23-.84-3.37-2.72V.48h-2.72V11.55C106.64,14.89,109.38,17,112.73,17ZM101,3.2V.48H90.12V16.75h2.72V10H99.6V7.27H92.84V3.2Z"/><path class="cls-2" d="M.51,58.79C15.32,55.08,32.2,50.47,52,47.66A149.78,149.78,0,0,0,66,59.34c-9.59,1.3-36.52,3.55-52.39,2.84C7.61,61.91,3,61,.51,58.79Z"/><path class="cls-3" d="M16,52.41c-5.05,1-11.29,2.77-15.93,3.74C-1.39,45.84,22.9,4,34.21.38,33,2.79,31.92,5.13,30.92,7.65,25,22.47,21.47,37.91,16,52.41Z"/></g></g></svg>